<?xml version="1.0" encoding="UTF-8"?>
<svg version="1.1" xmlns="http://www.w3.org/2000/svg" width="48" height="48">
<path d="M0 0 C2.87029869 1.79393668 4.49131638 2.98263276 6 6 C7.99571323 6.67939174 9.99594773 7.34561559 12 8 C14.60186108 10.60186108 14.29810177 11.82354355 14.3125 15.4375 C14.33763672 16.88962891 14.33763672 16.88962891 14.36328125 18.37109375 C14 21 14 21 12.81005859 22.64599609 C10.34248365 24.49185132 8.73519729 24.3436773 5.67578125 24.29296875 C4.64775391 24.28330078 3.61972656 24.27363281 2.56054688 24.26367188 C0.95276367 24.2259668 0.95276367 24.2259668 -0.6875 24.1875 C-1.77095703 24.17396484 -2.85441406 24.16042969 -3.97070312 24.14648438 C-6.64763405 24.11110643 -9.32356838 24.06174189 -12 24 C-12.08681476 20.37515001 -12.14032721 16.75056557 -12.1875 13.125 C-12.21263672 12.09246094 -12.23777344 11.05992188 -12.26367188 9.99609375 C-12.27333984 9.00996094 -12.28300781 8.02382813 -12.29296875 7.0078125 C-12.31653442 5.64100342 -12.31653442 5.64100342 -12.34057617 4.24658203 C-12.22818604 3.50520996 -12.1157959 2.76383789 -12 2 C-7.98141405 -0.6790573 -4.72358279 -0.69610694 0 0 Z " fill="#FBFBFB" transform="translate(34,12)"/>
<path d="M0 0 C2.87029869 1.79393668 4.49131638 2.98263276 6 6 C7.99571323 6.67939174 9.99594773 7.34561559 12 8 C14.60186108 10.60186108 14.29810177 11.82354355 14.3125 15.4375 C14.33763672 16.88962891 14.33763672 16.88962891 14.36328125 18.37109375 C14 21 14 21 12.81005859 22.64599609 C10.34248365 24.49185132 8.73519729 24.3436773 5.67578125 24.29296875 C4.64775391 24.28330078 3.61972656 24.27363281 2.56054688 24.26367188 C0.95276367 24.2259668 0.95276367 24.2259668 -0.6875 24.1875 C-1.77095703 24.17396484 -2.85441406 24.16042969 -3.97070312 24.14648438 C-6.64763405 24.11110643 -9.32356838 24.06174189 -12 24 C-12.08681476 20.37515001 -12.14032721 16.75056557 -12.1875 13.125 C-12.21263672 12.09246094 -12.23777344 11.05992188 -12.26367188 9.99609375 C-12.27333984 9.00996094 -12.28300781 8.02382813 -12.29296875 7.0078125 C-12.31653442 5.64100342 -12.31653442 5.64100342 -12.34057617 4.24658203 C-12.22818604 3.50520996 -12.1157959 2.76383789 -12 2 C-7.98141405 -0.6790573 -4.72358279 -0.69610694 0 0 Z M-10 4 C-10.22107787 6.7885289 -10.28107535 9.34653181 -10.1875 12.125 C-10.17396484 12.87910156 -10.16042969 13.63320313 -10.14648438 14.41015625 C-10.11109985 16.27374127 -10.05729167 18.13695978 -10 20 C-6.89601022 20.08710289 -3.79233452 20.14042309 -0.6875 20.1875 C0.63411133 20.22520508 0.63411133 20.22520508 1.98242188 20.26367188 C2.82998047 20.27333984 3.67753906 20.28300781 4.55078125 20.29296875 C5.72120972 20.31653442 5.72120972 20.31653442 6.9152832 20.34057617 C9.54438705 19.91106454 10.40231099 19.0947617 12 17 C12.58333333 14.5 12.58333333 14.5 12 12 C10.08135049 10.08135049 8.75674649 9.12205589 6.0625 8.6875 C4 8 4 8 1.625 4.9375 C-0.70312715 1.71043132 -0.70312715 1.71043132 -4.125 1.5 C-7.18736338 1.83317976 -7.18736338 1.83317976 -10 4 Z " fill="#030303" transform="translate(34,12)"/>
<path d="M0 0 C0.99 0 1.98 0 3 0 C3 6.6 3 13.2 3 20 C2.01 20 1.02 20 0 20 C0 13.4 0 6.8 0 0 Z " fill="#000000" transform="translate(17,16)"/>
<path d="M0 0 C0.99 0 1.98 0 3 0 C3 6.6 3 13.2 3 20 C2.01 20 1.02 20 0 20 C0 13.4 0 6.8 0 0 Z " fill="#000000" transform="translate(12,16)"/>
<path d="M0 0 C0.33 0 0.66 0 1 0 C1 5.94 1 11.88 1 18 C0.34 18 -0.32 18 -1 18 C-1.02684312 15.18743719 -1.04676188 12.37512759 -1.0625 9.5625 C-1.07087891 8.76005859 -1.07925781 7.95761719 -1.08789062 7.13085938 C-1.0965143 5.08704779 -1.0522815 3.04316098 -1 1 C-0.67 0.67 -0.34 0.34 0 0 Z " fill="#000000" transform="translate(9,18)"/>
<path d="M0 0 C0.66 0 1.32 0 2 0 C2 4.62 2 9.24 2 14 C1.34 14 0.68 14 0 14 C0 9.38 0 4.76 0 0 Z " fill="#000000" transform="translate(4,22)"/>
<path d="M0 0 C0.33 0 0.66 0 1 0 C1 3.63 1 7.26 1 11 C0.34 10.67 -0.32 10.34 -1 10 C-1.02689216 8.52093108 -1.04634621 7.04172517 -1.0625 5.5625 C-1.07410156 4.73878906 -1.08570312 3.91507813 -1.09765625 3.06640625 C-1 1 -1 1 0 0 Z " fill="#000000" transform="translate(1,23)"/>
</svg>
